<svg xmlns:xlink="http://www.w3.org/1999/xlink" style="width:100%;height:auto;" width="765" height="154" viewBox="0 0 765 154" fill="none" xmlns="http://www.w3.org/2000/svg" preserveAspectRatio="none">
<defs>
<mask id="lqd-banner-shapes-1-path-1">
<path d="M0.00189209 2.19998C0.00189209 2.19998 665.126 3.03998 679.84 3.13332C681.769 3.14545 683.797 3.24161 686.119 3.45814C687.241 3.56174 688.665 3.73815 690.038 3.97055C699.338 5.51709 704.433 12.8736 704.498 18.8105C704.598 24.5785 704.67 30.4137 704.656 38.4497C704.647 43.4739 704.599 49.66 704.498 57.3311C704.571 59.6345 702.398 75.9828 719.928 76.3841C719.821 76.3841 764.514 77.3175 764.674 77.3175" vector-effect="non-scaling-stroke" stroke="white" stroke-width="3" stroke-linejoin="round"></path>
<circle r="8" fill="black">
<animateMotion dur="4s" repeatCount="indefinite" fill="freeze" path="M0.00189209 2.19998C0.00189209 2.19998 665.126 3.03998 679.84 3.13332C681.769 3.14545 683.797 3.24161 686.119 3.45814C687.241 3.56174 688.665 3.73815 690.038 3.97055C699.338 5.51709 704.433 12.8736 704.498 18.8105C704.598 24.5785 704.67 30.4137 704.656 38.4497C704.647 43.4739 704.599 49.66 704.498 57.3311C704.571 59.6345 702.398 75.9828 719.928 76.3841C719.821 76.3841 764.514 77.3175 764.674 77.3175"></animateMotion>
</circle>
</mask>
</defs>
<defs>
<mask id="lqd-banner-shapes-1-path-2">
<path d="M0.00189209 27.2C0.00189209 27.2 665.126 28.04 679.84 28.1333C681.769 28.1454 683.797 28.2416 686.119 28.4581C687.241 28.5617 688.665 28.7382 690.038 28.9706C699.338 30.5171 704.433 37.8736 704.498 43.8105C704.598 49.5785 704.67 55.4137 704.656 63.4497C704.647 68.4739 704.599 74.66 704.498 82.3311C704.571 84.6345 702.398 100.983 719.928 101.384C719.821 101.384 764.514 102.317 764.674 102.317" vector-effect="non-scaling-stroke" stroke="white" stroke-width="3" stroke-linejoin="round"></path>
<circle r="8" fill="black">
<animateMotion dur="3s" repeatCount="indefinite" fill="freeze" path="M0.00189209 27.2C0.00189209 27.2 665.126 28.04 679.84 28.1333C681.769 28.1454 683.797 28.2416 686.119 28.4581C687.241 28.5617 688.665 28.7382 690.038 28.9706C699.338 30.5171 704.433 37.8736 704.498 43.8105C704.598 49.5785 704.67 55.4137 704.656 63.4497C704.647 68.4739 704.599 74.66 704.498 82.3311C704.571 84.6345 702.398 100.983 719.928 101.384C719.821 101.384 764.514 102.317 764.674 102.317"></animateMotion>
</circle>
</mask>
</defs>
<defs>
<mask id="lqd-banner-shapes-1-path-3">
<path d="M0.00189209 52.2C0.00189209 52.2 665.126 53.04 679.84 53.1333C681.769 53.1454 683.797 53.2416 686.119 53.4581C687.241 53.5617 688.665 53.7382 690.038 53.9706C699.338 55.5171 704.433 62.8736 704.498 68.8105C704.598 74.5785 704.67 80.4137 704.656 88.4497C704.647 93.4739 704.599 99.66 704.498 107.331C704.571 109.635 702.398 125.983 719.928 126.384C719.821 126.384 764.514 127.317 764.674 127.317" vector-effect="non-scaling-stroke" stroke="white" stroke-width="3" stroke-linejoin="round"></path>
<circle r="8" fill="black">
<animateMotion dur="4.5s" repeatCount="indefinite" fill="freeze" path="M0.00189209 52.2C0.00189209 52.2 665.126 53.04 679.84 53.1333C681.769 53.1454 683.797 53.2416 686.119 53.4581C687.241 53.5617 688.665 53.7382 690.038 53.9706C699.338 55.5171 704.433 62.8736 704.498 68.8105C704.598 74.5785 704.67 80.4137 704.656 88.4497C704.647 93.4739 704.599 99.66 704.498 107.331C704.571 109.635 702.398 125.983 719.928 126.384C719.821 126.384 764.514 127.317 764.674 127.317"></animateMotion>
</circle>
</mask>
</defs>
<defs>
<mask id="lqd-banner-shapes-1-path-4">
<path d="M0.00189209 77.2C0.00189209 77.2 665.126 78.04 679.84 78.1333C681.769 78.1454 683.797 78.2416 686.119 78.4581C687.241 78.5617 688.665 78.7382 690.038 78.9706C699.338 80.5171 704.433 87.8736 704.498 93.8105C704.598 99.5785 704.67 105.414 704.656 113.45C704.647 118.474 704.599 124.66 704.498 132.331C704.571 134.635 702.398 150.983 719.928 151.384C719.821 151.384 764.514 152.317 764.674 152.317" vector-effect="non-scaling-stroke" stroke="white" stroke-width="3" stroke-linejoin="round"></path>
<circle r="8" fill="black">
<animateMotion dur="3.5s" repeatCount="indefinite" fill="freeze" path="M0.00189209 77.2C0.00189209 77.2 665.126 78.04 679.84 78.1333C681.769 78.1454 683.797 78.2416 686.119 78.4581C687.241 78.5617 688.665 78.7382 690.038 78.9706C699.338 80.5171 704.433 87.8736 704.498 93.8105C704.598 99.5785 704.67 105.414 704.656 113.45C704.647 118.474 704.599 124.66 704.498 132.331C704.571 134.635 702.398 150.983 719.928 151.384C719.821 151.384 764.514 152.317 764.674 152.317"></animateMotion>
</circle>
</mask>
</defs>
<g stroke-opacity="0.15" fill-opacity="0.15" fill="none">
<path d="M0.00189209 2.19998C0.00189209 2.19998 665.126 3.03998 679.84 3.13332C681.769 3.14545 683.797 3.24161 686.119 3.45814C687.241 3.56174 688.665 3.73815 690.038 3.97055C699.338 5.51709 704.433 12.8736 704.498 18.8105C704.598 24.5785 704.67 30.4137 704.656 38.4497C704.647 43.4739 704.599 49.66 704.498 57.3311C704.571 59.6345 702.398 75.9828 719.928 76.3841C719.821 76.3841 764.514 77.3175 764.674 77.3175" vector-effect="non-scaling-stroke" stroke="#083217" stroke-width="3px" stroke-linejoin="round" mask="url(#lqd-banner-shapes-1-path-1)" fill="none" fill-opacity="0.15" stroke-opacity="0.15"></path>
<circle r="4" fill="#083217" stroke-width="0px" fill-opacity="0.15" stroke-opacity="0.15">
<animateMotion dur="4s" repeatCount="indefinite" fill="#083217" path="M0.00189209 2.19998C0.00189209 2.19998 665.126 3.03998 679.84 3.13332C681.769 3.14545 683.797 3.24161 686.119 3.45814C687.241 3.56174 688.665 3.73815 690.038 3.97055C699.338 5.51709 704.433 12.8736 704.498 18.8105C704.598 24.5785 704.67 30.4137 704.656 38.4497C704.647 43.4739 704.599 49.66 704.498 57.3311C704.571 59.6345 702.398 75.9828 719.928 76.3841C719.821 76.3841 764.514 77.3175 764.674 77.3175" stroke-width="0px" fill-opacity="0.15" stroke-opacity="0.15"></animateMotion>
</circle>
</g>
<g stroke-opacity="0.3" fill-opacity="0.3" fill="none">
<path d="M0.00189209 27.2C0.00189209 27.2 665.126 28.04 679.84 28.1333C681.769 28.1454 683.797 28.2416 686.119 28.4581C687.241 28.5617 688.665 28.7382 690.038 28.9706C699.338 30.5171 704.433 37.8736 704.498 43.8105C704.598 49.5785 704.67 55.4137 704.656 63.4497C704.647 68.4739 704.599 74.66 704.498 82.3311C704.571 84.6345 702.398 100.983 719.928 101.384C719.821 101.384 764.514 102.317 764.674 102.317" vector-effect="non-scaling-stroke" stroke="#083217" stroke-width="3px" stroke-linejoin="round" mask="url(#lqd-banner-shapes-1-path-2)" fill="none" fill-opacity="0.3" stroke-opacity="0.3"></path>
<circle r="4" fill="#083217" stroke-width="0px" fill-opacity="0.3" stroke-opacity="0.3">
<animateMotion dur="3s" repeatCount="indefinite" fill="#083217" path="M0.00189209 27.2C0.00189209 27.2 665.126 28.04 679.84 28.1333C681.769 28.1454 683.797 28.2416 686.119 28.4581C687.241 28.5617 688.665 28.7382 690.038 28.9706C699.338 30.5171 704.433 37.8736 704.498 43.8105C704.598 49.5785 704.67 55.4137 704.656 63.4497C704.647 68.4739 704.599 74.66 704.498 82.3311C704.571 84.6345 702.398 100.983 719.928 101.384C719.821 101.384 764.514 102.317 764.674 102.317" stroke-width="0px" fill-opacity="0.3" stroke-opacity="0.3"></animateMotion>
</circle>
</g>
<g stroke-opacity="0.7" fill-opacity="0.7" fill="none">
<path d="M0.00189209 52.2C0.00189209 52.2 665.126 53.04 679.84 53.1333C681.769 53.1454 683.797 53.2416 686.119 53.4581C687.241 53.5617 688.665 53.7382 690.038 53.9706C699.338 55.5171 704.433 62.8736 704.498 68.8105C704.598 74.5785 704.67 80.4137 704.656 88.4497C704.647 93.4739 704.599 99.66 704.498 107.331C704.571 109.635 702.398 125.983 719.928 126.384C719.821 126.384 764.514 127.317 764.674 127.317" vector-effect="non-scaling-stroke" stroke="#083217" stroke-width="3px" stroke-linejoin="round" mask="url(#lqd-banner-shapes-1-path-3)" fill="none" fill-opacity="0.7" stroke-opacity="0.7"></path>
<circle r="4" fill="#083217" stroke-width="0px" fill-opacity="0.7" stroke-opacity="0.7">
<animateMotion dur="4.5s" repeatCount="indefinite" fill="#083217" path="M0.00189209 52.2C0.00189209 52.2 665.126 53.04 679.84 53.1333C681.769 53.1454 683.797 53.2416 686.119 53.4581C687.241 53.5617 688.665 53.7382 690.038 53.9706C699.338 55.5171 704.433 62.8736 704.498 68.8105C704.598 74.5785 704.67 80.4137 704.656 88.4497C704.647 93.4739 704.599 99.66 704.498 107.331C704.571 109.635 702.398 125.983 719.928 126.384C719.821 126.384 764.514 127.317 764.674 127.317" stroke-width="0px" fill-opacity="0.7" stroke-opacity="0.7"></animateMotion>
</circle>
</g>
<g fill="none">
<path d="M0.00189209 77.2C0.00189209 77.2 665.126 78.04 679.84 78.1333C681.769 78.1454 683.797 78.2416 686.119 78.4581C687.241 78.5617 688.665 78.7382 690.038 78.9706C699.338 80.5171 704.433 87.8736 704.498 93.8105C704.598 99.5785 704.67 105.414 704.656 113.45C704.647 118.474 704.599 124.66 704.498 132.331C704.571 134.635 702.398 150.983 719.928 151.384C719.821 151.384 764.514 152.317 764.674 152.317" vector-effect="non-scaling-stroke" stroke="#083217" stroke-width="3px" stroke-linejoin="round" mask="url(#lqd-banner-shapes-1-path-4)" fill="none"></path>
<circle r="4" fill="#083217" stroke-width="0px">
<animateMotion dur="3.5s" repeatCount="indefinite" fill="#083217" path="M0.00189209 77.2C0.00189209 77.2 665.126 78.04 679.84 78.1333C681.769 78.1454 683.797 78.2416 686.119 78.4581C687.241 78.5617 688.665 78.7382 690.038 78.9706C699.338 80.5171 704.433 87.8736 704.498 93.8105C704.598 99.5785 704.67 105.414 704.656 113.45C704.647 118.474 704.599 124.66 704.498 132.331C704.571 134.635 702.398 150.983 719.928 151.384C719.821 151.384 764.514 152.317 764.674 152.317" stroke-width="0px"></animateMotion>
</circle>
</g>
</svg>