<?xml version="1.0" standalone="no"?><svg xmlns="http://www.w3.org/2000/svg" viewBox="0 0 1440 320"><path fill="#0099ff" fill-opacity="1" d="M0,64L24,96C48,128,96,192,144,197.3C192,203,240,149,288,133.3C336,117,384,139,432,138.7C480,139,528,117,576,133.3C624,149,672,203,720,240C768,277,816,299,864,293.3C912,288,960,256,1008,250.7C1056,245,1104,267,1152,261.3C1200,256,1248,224,1296,218.7C1344,213,1392,235,1416,245.3L1440,256L1440,0L1416,0C1392,0,1344,0,1296,0C1248,0,1200,0,1152,0C1104,0,1056,0,1008,0C960,0,912,0,864,0C816,0,768,0,720,0C672,0,624,0,576,0C528,0,480,0,432,0C384,0,336,0,288,0C240,0,192,0,144,0C96,0,48,0,24,0L0,0Z"></path></svg>